<?xml version="1.0" encoding="iso-8859-1"?>
<!-- Generator: Adobe Illustrator 23.1.1, SVG Export Plug-In . SVG Version: 6.00 Build 0)  -->
<svg version="1.1" id="LIne-Expand" xmlns="http://www.w3.org/2000/svg" xmlns:xlink="http://www.w3.org/1999/xlink" x="0px"
     y="0px" viewBox="0 0 64 64" style="enable-background:new 0 0 64 64;" xml:space="preserve">
<path d="M52,36.16V5c0-2.757-2.243-5-5-5H5C2.243,0,0,2.243,0,5v42c0,2.757,2.243,5,5,5h31.16c0.976,6.773,6.801,12,13.84,12
	c7.72,0,14-6.28,14-14C64,42.961,58.773,37.135,52,36.16z M5,50c-1.654,0-3-1.346-3-3V5c0-1.654,1.346-3,3-3h42c1.654,0,3,1.346,3,3
	v31c-7.72,0-14,6.28-14,14H5z M50,62c-6.617,0-12-5.383-12-12s5.383-12,12-12s12,5.383,12,12S56.617,62,50,62z"/>
    <path d="M56.447,46.105l-6-3c-0.281-0.141-0.613-0.141-0.895,0l-6,3C43.214,46.275,43,46.621,43,47v6
	c0,0.379,0.214,0.725,0.553,0.895l6,3C49.693,56.965,49.847,57,50,57s0.307-0.035,0.447-0.105l6-3C56.786,53.725,57,53.379,57,53v-6
	C57,46.621,56.786,46.275,56.447,46.105z M55,52.382l-5,2.5l-5-2.5v-4.764l5-2.5l5,2.5V52.382z"/>
    <path d="M44.8,18.4l-6-8C38.611,10.148,38.315,10,38,10H14c-0.315,0-0.611,0.148-0.8,0.4l-6,8c-0.267,0.355-0.267,0.844,0,1.199
	l18,24c0.012,0.017,0.033,0.023,0.047,0.039c0.073,0.086,0.159,0.157,0.256,0.214c0.032,0.019,0.062,0.037,0.096,0.052
	C25.724,43.961,25.857,44,26,44s0.276-0.039,0.401-0.095c0.034-0.015,0.064-0.034,0.096-0.052c0.098-0.057,0.183-0.128,0.256-0.214
	c0.013-0.016,0.034-0.022,0.047-0.039l18-24C45.067,19.244,45.067,18.756,44.8,18.4z M22,18l4-5.333L30,18H22z M30.719,20L26,38.877
	L21.281,20H30.719z M28,12H36l-4,5.333L28,12z M20,17.333L16,12H24L20,17.333z M18,18h-8l4-5.334L18,18z M19.219,20l4.609,18.438
	L10,20H19.219z M32.781,20H42L28.171,38.438L32.781,20z M34,18l4-5.334L42,18H34z"/>
</svg>
