<?xml version="1.0" encoding="utf-8"?>
<!DOCTYPE svg PUBLIC "-//W3C//DTD SVG 1.1//EN" "http://www.w3.org/Graphics/SVG/1.1/DTD/svg11.dtd">
<svg version="1.1" xmlns="http://www.w3.org/2000/svg" xmlns:xlink="http://www.w3.org/1999/xlink" x="0px" y="0px" viewBox="0 0 1000 1000" enable-background="new 0 0 1000 1000" xml:space="preserve">
<g><g><g><polygon points="563.9,350.9 500,461.7 436.1,350.9 393.5,350.9 478.7,500 393.5,649.1 436.1,649.1 500,538.3 563.9,649.1 606.5,649.1 521.3,500 606.5,350.9 "/><polygon points="137.8,393.5 223,393.5 223,649.1 265.7,649.1 265.7,393.5 350.9,393.5 350.9,350.9 137.8,350.9 "/><polygon points="649.1,393.5 734.3,393.5 734.3,649.1 777,649.1 777,393.5 862.2,393.5 862.2,350.9 649.1,350.9 "/><path d="M862.2,223H137.8C65.4,223,10,278.4,10,350.9v298.3C10,721.6,65.4,777,137.8,777h724.3c72.4,0,127.8-55.4,127.8-127.8V350.9C990,278.4,934.6,223,862.2,223z M947.4,649.1c0,46.9-38.3,85.2-85.2,85.2H137.8c-46.9,0-85.2-38.3-85.2-85.2V350.9c0-46.9,38.3-85.2,85.2-85.2h724.3c46.9,0,85.2,38.3,85.2,85.2V649.1z"/></g></g></g>
</svg>